PathFileType	4	(X/Y/Z)	..\data\2014022\dynamic\2014022_C4_04.trc
DataRate	CameraRate	NumFrames	NumMarkers	Units	OrigDataRate	OrigDataStartFrame	OrigNumFrames
100.000000	100.000000	4	52	mm	100.000000	0	173
Frame#	Time	L_IAS			L_IPS			R_IPS			R_IAS			L_FTC			L_FLE			L_FME			L_FAX			L_TTC			L_FAL			L_TAM			L_FCC			L_FM1			L_FM2			L_FM5			R_FTC			R_FLE			R_FME			R_FAX			R_TTC			R_FAL			R_TAM			R_FCC			R_FM1			R_FM2			R_FM5			CV7			TV10			SXS			SJN			L_SIA			L_SRS			L_SAA			L_SAE			L_HLE			L_HME			L_UOA			L_RSP			L_UHE			L_HM2			L_HM5			R_SIA			R_SRS			R_SAA			R_SAE			R_HLE			R_HME			R_UOA			R_RSP			R_UHE			R_HM2			R_HM5			
		X1	Y1	Z1	X2	Y2	Z2	X3	Y3	Z3	X4	Y4	Z4	X5	Y5	Z5	X6	Y6	Z6	X7	Y7	Z7	X8	Y8	Z8	X9	Y9	Z9	X10	Y10	Z10	X11	Y11	Z11	X12	Y12	Z12	X13	Y13	Z13	X14	Y14	Z14	X15	Y15	Z15	X16	Y16	Z16	X17	Y17	Z17	X18	Y18	Z18	X19	Y19	Z19	X20	Y20	Z20	X21	Y21	Z21	X22	Y22	Z22	X23	Y23	Z23	X24	Y24	Z24	X25	Y25	Z25	X26	Y26	Z26	X27	Y27	Z27	X28	Y28	Z28	X29	Y29	Z29	X30	Y30	Z30	X31	Y31	Z31	X32	Y32	Z32	X33	Y33	Z33	X34	Y34	Z34	X35	Y35	Z35	X36	Y36	Z36	X37	Y37	Z37	X38	Y38	Z38	X39	Y39	Z39	X40	Y40	Z40	X41	Y41	Z41	X42	Y42	Z42	X43	Y43	Z43	X44	Y44	Z44	X45	Y45	Z45	X46	Y46	Z46	X47	Y47	Z47	X48	Y48	Z48	X49	Y49	Z49	X50	Y50	Z50	X51	Y51	Z51	X52	Y52	Z52	

1	0	-1094.896240234375	928.5980224609377	150.0382080078124	-1295.911499023438	941.458923339844	187.2600860595702	-1310.1396484375	946.9272460937502	294.1793823242186	-1135.36279296875	924.0034790039065	395.0177612304688	-1161.346069335938	862.440368652344	70.79246520996081	-1021.112365722656	460.0100402832032	126.9946899414062	-1047.649047851563	440.1333007812501	262.8999938964843	-1029.178833007813	405.4832458496095	125.687515258789	-959.6255493164065	414.6483764648439	181.7362518310546	-895.7739868164065	77.37245941162111	177.3236389160155	-881.522399902344	103.0939254760742	259.1605529785156	-908.160095214844	20.9538745880127	232.0389862060546	-741.2663574218751	90.69619750976564	265.0467834472656	-743.4232177734376	103.8255386352539	206.1698913574218	-767.1990356445314	65.89448547363283	164.5322265624999	-1239.657470703125	864.4183349609377	431.8265075683593	-1322.229614257813	459.4540100097657	364.7071533203124	-1298.615112304688	466.1172180175782	229.9373474121093	-1355.682861328125	416.113250732422	360.1318359374999	-1292.866577148438	384.3186035156251	314.8947448730468	-1464.502197265625	88.67202758789064	289.7741699218749	-1444.381713867188	99.39231109619143	204.1114196777343	-1511.161376953125	52.19297790527345	240.0885314941405	-1331.56689453125	22.33541107177735	204.4600524902343	-1322.48779296875	34.50241851806641	265.8987731933593	-1368.775146484375	22.84146308898926	316.6732482910155	-1227.337646484375	1422.574951171875	253.1717834472655	-1319.477783203125	1206.769897460938	263.6587524414061	-1085.618041992188	1123.030639648438	251.9395446777343	-1117.607421875	1340.7705078125	253.1944885253905	-1331.462036132813	1234.573852539063	185.8308868408202	-1281.405151367188	1374.390258789063	198.6229400634764	-1252.984008789063	1377.394775390625	127.8230972290038	-1208.611938476563	1357.572143554688	75.34304046630847	-1327.743530273438	1063.2626953125	32.15558242797836	-1302.3642578125	1044.34228515625	116.2977752685546	-1336.013305664063	1039.607543945313	70.596351623535	-1286.70263671875	814.555847167969	3.913109064102016	-1359.471069335938	841.1110839843752	-4.310109615326095	-1295.182006835938	728.6302490234376	-16.49321556091325	-1387.793701171875	763.3913574218751	10.23472023010237	-1324.90625	1240.814086914063	352.2975463867186	-1271.355102539063	1378.561157226563	331.3984069824218	-1234.830322265625	1378.418334960938	408.9250183105468	-1186.238037109375	1375.389770507813	438.2480773925781	-1201.876586914063	1056.090576171875	496.8188781738281	-1193.891967773438	1042.4228515625	415.1057128906249	-1207.202026367188	1026.031494140625	464.7235412597656	-1013.097229003907	903.0193481445315	541.8546142578125	-1069.054565429688	858.9149169921877	521.3389892578125	-944.8751220703128	842.4656372070315	549.78125	-1011.06689453125	801.8885498046877	485.739501953125	
2	0.01	-1080.895629882813	927.3153076171877	150.5799255371093	-1281.877197265625	940.209167480469	186.6424560546874	-1296.828369140625	945.9226684570315	293.4417724609374	-1122.406982421875	922.935729980469	395.6728515625	-1147.902709960938	860.9590454101565	70.99598693847643	-1010.079772949219	457.9878234863282	128.3789062499999	-1037.898193359375	438.547332763672	264.3188781738281	-1018.084411621094	403.310760498047	127.3359374999999	-948.8519287109377	413.0637817382814	183.9391326904296	-883.4467773437502	76.50831604003908	180.575942993164	-869.351013183594	102.6419677734375	262.4577636718749	-895.8576660156252	20.24437713623047	235.3062133789062	-729.2779541015626	90.60393524169923	269.1345520019531	-731.0440063476564	103.2169036865235	210.1586608886718	-754.4986572265626	65.01124572753908	168.8353576660156	-1227.365478515625	863.709411621094	431.4510498046874	-1312.06689453125	459.5175781250001	365.2681884765624	-1287.937377929688	465.8399658203126	230.6281738281249	-1346.203857421875	416.6631469726564	360.7546386718749	-1283.933715820313	383.5735473632813	315.2959899902343	-1462.667602539063	91.54476165771486	290.7619323730468	-1442.661743164063	102.0571060180664	205.0333251953124	-1510.389770507813	56.28065109252931	241.2133483886717	-1331.657836914063	21.94563293457032	204.5216674804686	-1322.176147460938	34.47035217285157	265.9693298339843	-1368.291748046875	22.80102348327637	316.8173522949218	-1215.239990234375	1421.440673828125	252.7879180908202	-1306.90869140625	1205.356323242188	263.4194335937499	-1072.505493164063	1122.353759765625	252.0553741455077	-1105.236938476563	1340.040649414063	253.1463012695312	-1318.595825195313	1232.86279296875	185.8527526855467	-1269.088623046875	1372.912231445313	198.2956542968749	-1240.692260742188	1375.973266601563	127.5084381103514	-1196.445556640625	1356.399169921875	75.08800506591784	-1316.258056640625	1062.195068359375	32.63343429565414	-1290.043090820313	1043.067016601563	116.4556427001952	-1324.356201171875	1038.86767578125	71.30461883544908	-1277.398315429688	814.0252685546877	1.790814042091214	-1350.111694335938	840.554626464844	-3.460380792617964	-1286.720825195313	728.0235595703126	-18.3804607391359	-1377.965942382813	762.7243652343751	12.5827789306639	-1312.394775390625	1239.348510742188	351.9728088378905	-1259.302124023438	1377.3828125	330.9454650878905	-1222.929077148438	1377.386840820313	408.5673217773437	-1174.52734375	1374.410400390625	438.0723571777343	-1191.039184570313	1054.911376953125	496.1889648437499	-1181.353637695313	1041.512451171875	414.4322509765624	-1195.491455078125	1024.872924804688	463.9014587402343	-1003.655578613282	901.7022094726565	546.0419311523438	-1058.384643554688	857.559265136719	521.091064453125	-935.1978149414066	841.0412597656252	554.962158203125	-997.6254272460941	802.582214355469	485.7353820800781	
3	0.02	-1066.798950195313	926.1972656250002	150.971466064453	-1267.724243164063	939.1523437500002	186.2511901855468	-1283.229248046875	945.1248779296877	293.009552001953	-1108.993530273438	921.990661621094	396.2027282714844	-1134.494018554688	859.7109375000002	71.22183990478503	-999.0220336914065	456.2130737304689	129.8410034179687	-1027.63720703125	437.427947998047	265.8775024414062	-1007.375122070313	401.3153381347657	129.0589447021484	-938.2376098632815	411.3527221679689	186.0423889160155	-873.3174438476565	75.27600097656251	183.7786254882812	-859.1665649414065	101.5052947998047	265.7136840820312	-886.121032714844	19.35071754455567	238.4545440673828	-719.3421020507814	88.72051239013673	272.8193359374999	-720.7001953125001	100.9617004394532	213.750732421875	-744.3028564453126	62.84350967407228	172.7440338134765	-1214.632080078125	863.1116943359377	431.1920776367187	-1301.2138671875	459.5794677734376	366.0023498535155	-1276.645141601563	465.5206604003907	231.5145416259764	-1336.067504882813	417.222381591797	361.5563049316405	-1274.35009765625	382.7955322265626	315.923126220703	-1460.52099609375	94.76808929443361	291.9911193847655	-1440.621459960938	105.0629577636719	206.2144165039061	-1509.311767578125	60.8678436279297	242.5480651855467	-1331.866577148438	21.4726676940918	204.5713806152343	-1321.869384765625	34.37550735473634	266.0204772949218	-1367.730590820313	22.69992256164551	316.973419189453	-1203.038818359375	1420.485473632813	252.2725372314452	-1294.239501953125	1204.106567382813	263.0645141601561	-1059.192504882813	1121.933349609375	252.1546630859374	-1092.755004882813	1339.522583007813	253.0114288330077	-1305.546142578125	1231.3359375	185.6884155273436	-1256.62353515625	1371.613647460938	197.8011474609374	-1228.206787109375	1374.732055664063	127.0263366699217	-1184.01611328125	1355.405151367188	74.70736694335925	-1304.256225585938	1061.249633789063	32.97156143188462	-1277.217895507813	1041.939208984375	116.4636154174803	-1312.211547851563	1038.221801757813	71.8507919311522	-1267.442993164063	813.6789550781252	-0.4547734260560635	-1340.122192382813	840.1129150390627	-2.728087425232098	-1277.671997070313	727.6022949218751	-20.4618816375734	-1367.461669921875	762.1333618164064	14.73002052307113	-1299.747192382813	1238.008056640625	351.4585876464843	-1247.157592773438	1376.354370117188	330.3357543945311	-1210.983642578125	1376.5205078125	408.0791320800781	-1162.797485351563	1373.620849609375	437.7972717285156	-1180.345825195313	1053.944946289063	495.4790649414062	-1168.910034179688	1040.781127929688	413.6993408203124	-1183.891967773438	1023.921997070313	463.0209960937499	-994.4257202148441	900.5118408203127	549.9176635742188	-1047.868530273438	856.4796142578127	521.0568237304688	-925.8823242187503	839.680114746094	560.0863037109375	-984.5394897460941	803.2005004882815	486.4261779785156	
4	0.03	-1052.608276367188	925.2889404296877	151.2159881591796	-1253.474853515625	938.309020996094	186.0993194580077	-1269.346435546875	944.5357666015627	292.9052429199218	-1095.123779296875	921.1706542968752	396.5872802734375	-1121.080078125	858.7290649414065	71.47290039062487	-987.989440917969	454.6757812500001	131.3188934326171	-1016.959838867188	436.700164794922	267.5075073242187	-997.0285644531252	399.5016174316407	130.7795257568359	-927.803649902344	409.5542297363282	188.0097351074218	-865.0910644531252	73.73170471191408	186.8718719482421	-850.7535400390627	99.74824523925784	268.8865356445312	-878.6743164062502	18.33091926574707	241.396499633789	-711.2135009765626	85.13402557373048	276.1436157226562	-712.1104125976564	97.16497802734378	216.9902954101562	-736.3028564453126	59.51237869262697	176.223159790039	-1201.432983398438	862.6076660156252	431.0657043457031	-1289.541870117188	459.5821228027345	366.9212646484374	-1264.615966796875	465.1023254394532	232.6129913330077	-1325.158569335938	417.7481079101564	362.5490417480468	-1264.000366210938	381.9402160644532	316.808135986328	-1457.9658203125	98.38344573974612	293.4491882324218	-1438.136596679688	108.4254150390625	207.6527709960936	-1507.793823242188	66.02644348144533	244.060089111328	-1332.203735351563	20.94981575012207	204.5906677246093	-1321.58740234375	34.22028732299805	266.0307312011718	-1367.110229492188	22.56011009216309	317.1115112304686	-1190.732421875	1419.723388671875	251.6276855468749	-1281.468383789063	1203.034301757813	262.5910034179686	-1045.684814453125	1121.773193359375	252.2432403564452	-1080.165893554688	1339.22216796875	252.7911224365234	-1292.322387695313	1230.01708984375	185.3294067382811	-1244.009887695313	1370.515869140625	197.139434814453	-1215.52294921875	1373.6875	126.3785934448241	-1171.316772460938	1354.595947265625	74.20124053955065	-1291.749267578125	1060.442749023438	33.16462707519516	-1263.906616210938	1040.972290039063	116.3218765258788	-1299.577026367188	1037.67041015625	72.21684265136705	-1256.796997070313	813.4900512695315	-2.748232126236116	-1329.47265625	839.7864990234377	-2.136215686798259	-1267.999267578125	727.3564453125001	-22.69124221801774	-1356.290771484375	761.6334838867189	16.58977508544906	-1286.974243164063	1236.815795898438	350.7584228515624	-1234.919311523438	1375.493774414063	329.5750732421874	-1198.989990234375	1375.8330078125	407.4651184082031	-1151.0390625	1373.03125	437.423583984375	-1169.76025390625	1053.210327148438	494.7115478515624	-1156.57080078125	1040.224243164063	412.9443969726562	-1172.392211914063	1023.199645996094	462.1165771484374	-985.3461303710941	899.4912719726565	553.4644165039062	-1037.487426757813	855.6844482421877	521.2731323242188	-916.8897705078128	838.424987792969	565.1087036132812	-971.8759155273441	803.6898193359377	487.7875366210938	
